<svg version="1.1" id="Layer_1" xmlns="http://www.w3.org/2000/svg" xmlns:xlink="http://www.w3.org/1999/xlink"
     width="100%" height="100%" viewBox="0 0 784 480" xml:space="preserve">
    <path fill="#2DD4BF" opacity="1.000000" stroke="none"
        d="M493.409180,273.406677 C486.010559,280.391937 479.151825,287.400787 468.648743,288.998474 C461.707825,290.054321 460.735504,289.611969 460.732330,282.646606 C460.727936,273.007294 460.727936,273.007294 451.286865,272.991089 C439.577057,272.971008 439.481201,272.969727 439.324829,284.529541 C439.278320,287.967926 438.439453,289.798584 434.577972,289.765747 C410.925171,289.564636 387.270386,289.350494 363.618378,289.492126 C358.501129,289.522797 356.568146,287.794983 357.053345,282.902435 C357.151520,281.912567 357.071167,280.904572 357.065918,279.904968 C357.032806,273.613129 356.510071,273.084137 350.243835,272.995514 C349.910675,272.990784 349.577423,272.996216 349.244202,272.994598 C336.193176,272.930969 336.123108,272.926910 335.388489,285.718903 C335.231171,288.457855 334.394745,289.791046 331.538696,289.421539 C329.723724,289.186707 327.865845,289.178467 326.085724,288.796112 C314.804779,286.373108 296.198975,269.734955 292.387756,258.837280 C291.763519,257.052368 291.656219,255.265259 291.655792,253.432404 C291.652618,239.603851 291.625183,225.775208 291.662354,211.946762 C291.684174,203.832306 296.542908,198.696594 304.599487,198.689728 C366.910980,198.636612 429.222565,198.641068 491.534058,198.699875 C499.613678,198.707504 504.284302,203.430206 504.350616,211.394623 C504.468567,225.555161 504.464203,239.716766 504.492676,253.877960 C504.509644,262.332184 499.878754,268.198456 493.409180,273.406677 z"/>
    <path fill="#2DD4BF" opacity="1.000000" stroke="none"
        d="M406.999878,346.384827 C374.189728,346.381989 341.879608,346.391174 309.569458,346.368622 C299.854492,346.361847 294.763153,341.364105 294.729614,331.653259 C294.663422,312.500580 294.699982,293.347504 294.713043,274.194611 C294.714020,272.749725 294.462646,271.229828 295.491150,269.657043 C298.269226,270.095734 299.600525,272.377808 301.407684,273.950043 C307.763733,279.479858 312.914062,286.536865 321.276611,289.522400 C324.419159,290.644318 327.491302,291.787933 330.968964,291.244141 C333.696899,290.817596 335.564819,291.803040 335.350555,295.020569 C335.095093,298.856018 337.275696,299.913605 340.662415,299.781769 C343.489410,299.671753 346.337341,299.585632 349.152405,299.799530 C353.775543,300.150818 357.412018,299.650970 357.737793,293.733917 C357.900421,290.780090 360.619232,291.609436 362.488586,291.608704 C379.809357,291.601898 397.130280,291.684265 414.450806,291.632568 C420.606659,291.614197 426.762939,291.335083 432.916443,291.105774 C436.584656,290.969086 439.711243,291.264771 439.344269,296.239197 C439.155212,298.801483 440.790680,299.736755 443.150452,299.733765 C446.481232,299.729523 449.817169,299.638306 453.141479,299.790405 C457.446625,299.987305 461.240784,299.993500 460.964172,293.886444 C460.855927,291.496765 463.132935,291.392670 465.088654,291.487610 C473.078156,291.875519 479.557861,288.666443 485.218384,283.234650 C490.001160,278.645111 494.994843,274.275330 499.860474,269.839935 C502.067230,271.144257 501.298676,273.002655 501.303284,274.503113 C501.363190,293.988922 501.379089,313.475098 501.331207,332.960968 C501.310852,341.240540 496.274078,346.317871 487.941986,346.338989 C461.128082,346.406921 434.313965,346.376892 406.999878,346.384827 z"/>
    <path fill="#2DD4BF" opacity="1.000000" stroke="none"
        d="M569.936523,158.277313 C573.951660,166.587585 575.109680,175.151611 575.214417,183.838928 C575.399170,199.165787 575.234253,214.496506 575.327942,229.824921 C575.396667,241.075333 579.842773,245.442978 591.104858,245.757919 C601.990479,246.062317 602.208191,243.390320 602.129822,256.870483 C602.099792,262.035492 602.012573,267.203339 602.143433,272.365051 C602.233582,275.921478 600.947693,277.652496 597.184326,277.356720 C594.701599,277.161591 592.183594,277.245056 589.690857,277.380035 C580.191589,277.894409 575.416504,282.775757 575.343933,292.349274 C575.226562,307.844025 575.266235,323.340088 575.278931,338.835602 C575.283142,344.017426 574.667969,349.124634 573.563049,354.168243 C569.543579,372.514038 557.700989,383.166290 539.179993,385.246460 C530.388550,386.233856 521.571655,386.225189 512.744202,386.249969 C509.320862,386.259583 507.909088,384.914246 507.954163,381.531464 C508.049622,374.368103 508.075684,367.201630 507.971954,360.038696 C507.919373,356.409271 509.506165,354.907654 513.079346,354.993286 C516.406311,355.073059 519.754211,355.049255 523.067566,354.770264 C530.703735,354.127136 534.554993,350.612976 535.740173,343.084656 C537.721375,330.499908 536.168945,317.810883 536.662354,305.179413 C536.888916,299.376770 536.505981,293.600586 537.445435,287.761932 C539.093689,277.518311 544.427002,270.355865 553.497314,265.712097 C555.531494,264.670654 557.556030,263.610260 559.403992,262.652374 C559.421875,259.913574 557.483765,259.729095 556.052490,259.089752 C542.819641,253.178589 537.014526,242.474411 536.726257,228.505615 C536.475281,216.347504 536.644958,204.180283 536.670471,192.017181 C536.678162,188.346069 536.471313,184.718185 535.900269,181.074615 C534.573364,172.608688 530.587769,168.799576 522.011780,168.371506 C518.686829,168.205551 515.346313,168.225647 512.016907,168.313400 C509.236633,168.386673 508.049927,167.048416 508.053375,164.412537 C508.063477,156.748962 508.050049,149.085098 508.119019,141.422012 C508.136536,139.475082 508.662994,137.684769 511.163818,137.718262 C524.918091,137.902466 538.833740,136.201630 552.079712,141.833328 C559.917053,145.165482 565.950928,150.284058 569.936523,158.277313 z"/>
    <path fill="#2DD4BF" opacity="1.000000" stroke="none"
        d="M287.423615,159.733978 C287.417419,160.863113 287.313446,161.545914 287.422424,162.192841 C288.223877,166.950150 286.402679,169.031281 281.482147,168.347473 C279.685089,168.097748 277.823425,168.296951 275.991486,168.316925 C264.467194,168.442490 259.485626,173.253952 259.380768,184.745422 C259.251556,198.901535 259.538879,213.063934 259.241943,227.215134 C259.058289,235.969696 257.297516,244.394913 251.055496,251.233185 C248.073639,254.499878 244.478561,256.804962 240.580414,258.736450 C239.129517,259.455353 237.413315,259.772125 236.589249,261.108032 C236.511719,263.173950 237.918640,263.570526 239.122421,264.046509 C253.904602,269.891510 259.020599,281.808838 259.256744,296.557129 C259.475372,310.211365 259.314758,323.871490 259.352142,337.528961 C259.385956,349.884186 264.140106,354.702393 276.522858,355.004089 C287.425598,355.269714 287.428864,355.269775 287.430725,366.157013 C287.431641,371.485901 287.424103,376.814819 287.407410,382.143677 C287.401337,384.080933 287.182495,386.051208 284.657410,386.064667 C270.041351,386.142548 255.286667,387.069641 241.535675,380.541382 C228.997375,374.588806 223.452148,363.743225 221.742111,350.714508 C219.436844,333.150513 221.037155,315.461304 220.759033,297.830353 C220.490234,280.790253 217.333511,277.263123 200.291473,277.407013 C195.346237,277.448792 193.364227,276.107544 193.652359,270.946533 C194.023148,264.305298 193.900040,257.621307 193.665115,250.967178 C193.524353,246.980164 195.132095,245.544739 198.955139,245.798828 C201.439087,245.963928 203.950287,245.810379 206.445145,245.703308 C215.655212,245.308014 220.508408,240.535049 220.616440,231.192078 C220.795547,215.704376 220.688339,200.213425 220.718597,184.723877 C220.734314,176.686859 221.681686,168.808334 224.679077,161.264343 C230.972214,145.425446 244.233353,139.632767 259.675812,137.973053 C268.544373,137.019897 277.599182,137.800278 287.424438,137.800278 C287.424438,145.119141 287.424438,152.195099 287.423615,159.733978 z"/>
    <path fill="#2DD4BF" opacity="1.000000" stroke="none"
        d="M365.268402,171.749542 C367.883270,170.796539 370.186646,170.639038 372.534149,170.641983 C389.669464,170.663391 406.805084,170.594498 423.940002,170.677872 C436.477722,170.738861 447.344604,181.107056 448.033752,193.504791 C448.077240,194.287567 448.015442,195.253082 447.599091,195.854004 C445.756226,198.513931 433.611908,197.413406 432.438690,194.351425 C430.399323,189.028915 426.590515,187.237259 421.153778,187.285629 C405.683289,187.423248 390.210266,187.407669 374.739441,187.290543 C369.660217,187.252090 365.942291,189.056152 364.238556,193.932388 C362.958771,197.595123 360.069397,197.150894 357.267548,197.171646 C347.050201,197.247253 346.190094,195.932968 350.031525,186.424026 C352.870300,179.397034 357.761230,174.511734 365.268402,171.749542 z"/>
</svg>
